<?xml version="1.0" encoding="utf-8"?>
<!DOCTYPE svg PUBLIC "-//W3C//DTD SVG 1.1//EN" "http://www.w3.org/Graphics/SVG/1.1/DTD/svg11.dtd">
<svg version="1.1" id="logo" xmlns="http://www.w3.org/2000/svg" xmlns:xlink="http://www.w3.org/1999/xlink" x="0px" y="0px"
	 width="1000px" height="1000px" viewBox="0 0 1000 1000" enable-background="new 0 0 1000 1000" xml:space="preserve">
<g>
	<g>
		<path fill="none" d="M369,440.326l128.287-162.65c-26.562-5.11-56.224-7.676-89.1-7.676H369V440.326z"/>
		<path fill="none" d="M683,527.328c0-76.086-19.403-136.672-58.203-181.776l-136.38,173.993l136.049,187.706
			c10.696-12.11,20.329-26.238,28.894-42.392C673.109,627.609,683,581.766,683,527.328z"/>
		<path fill="none" d="M369.089,604.779L374.7,768h52.347c23.527,0,44.844-0.918,63.961-2.752L369.089,604.779z"/>
		<path fill="#0F0F0F" d="M779.813,306.531c-36.125-64.094-82.078-110.359-137.859-138.828S500.875,125,386.094,125H208v790h180.766
			c102.281,0,174.156-6.438,215.641-19.328s80.016-36.172,115.609-69.828c35.578-33.656,63.469-75.984,83.672-127
			S834,591.891,834,531.016C834,445.453,815.938,370.625,779.813,306.531z M488.417,519.545l136.38-173.993
			C663.597,390.656,683,451.242,683,527.328c0,54.438-9.891,100.281-29.641,137.531c-8.564,16.153-18.197,30.281-28.894,42.392
			L488.417,519.545z M408.188,270c32.876,0,62.538,2.566,89.1,7.676L369,440.326V270H408.188z M374.7,768l-5.611-163.221
			l121.919,160.469c-19.117,1.834-40.434,2.752-63.961,2.752H374.7z"/>
	</g>
	<g>
		<path fill="none" d="M327,400.327l128.287-162.651c-26.562-5.11-56.223-7.676-89.099-7.676H327V400.327z"/>
		<path fill="none" d="M641,487.328c0-76.086-19.403-136.672-58.203-181.776l-136.38,173.994l136.049,187.706
			c10.696-12.11,20.329-26.238,28.894-42.392C631.109,587.609,641,541.766,641,487.328z"/>
		<path fill="none" d="M327.089,564.779L332.7,728h52.347c23.527,0,44.844-0.918,63.96-2.752L327.089,564.779z"/>
		<path fill="#EA5F00" d="M737.813,266.531c-36.125-64.094-82.078-110.359-137.859-138.828S458.875,85,344.094,85H166v790h180.766
			c102.281,0,174.156-6.438,215.641-19.328s80.016-36.172,115.609-69.828c35.578-33.656,63.469-75.984,83.672-127
			S792,551.891,792,491.016C792,405.453,773.938,330.625,737.813,266.531z M446.417,479.545l136.38-173.994
			C621.597,350.656,641,411.242,641,487.328c0,54.438-9.891,100.281-29.641,137.531c-8.564,16.153-18.197,30.281-28.894,42.392
			L446.417,479.545z M366.188,230c32.876,0,62.538,2.566,89.099,7.676L327,400.327V230H366.188z M332.7,728l-5.611-163.221
			l121.918,160.469c-19.116,1.834-40.434,2.752-63.96,2.752H332.7z"/>
	</g>
</g>
</svg>
