<?xml version="1.0" encoding="utf-8"?>
<!-- Generator: Adobe Illustrator 16.0.0, SVG Export Plug-In . SVG Version: 6.00 Build 0)  -->
<!DOCTYPE svg PUBLIC "-//W3C//DTD SVG 1.1//EN" "http://www.w3.org/Graphics/SVG/1.1/DTD/svg11.dtd">
<svg version="1.1" id="logo" xmlns="http://www.w3.org/2000/svg" xmlns:xlink="http://www.w3.org/1999/xlink" x="0px" y="0px"
	 width="1000px" height="1000px" viewBox="0 0 1000 1000" enable-background="new 0 0 1000 1000" xml:space="preserve">
<g>
	<g>
		<path fill="none" d="M334,420.537l156.417-198.132C458.07,216.182,422.139,213,382.103,213H334V420.537z"/>
		<path fill="none" d="M716.768,526.487c0-92.657-23.629-166.438-70.879-221.367L479.806,517.009l165.68,228.587
			c13.025-14.747,24.757-31.952,35.187-51.624C704.723,648.609,716.768,592.78,716.768,526.487z"/>
		<path fill="none" d="M334.488,621.019L341.322,820h63.748c28.651,0,54.611-1.225,77.891-3.457L334.488,621.019z"/>
		<path fill="#0F0F0F" d="M834.665,257.602c-43.992-78.053-99.954-134.162-167.884-168.831S494.977,37,355.197,37H138v962h220.451
			c124.558,0,212.086-8.044,262.606-23.742s97.442-44.152,140.788-85.139c43.327-40.986,77.292-92.584,101.896-154.711
			c24.604-62.126,36.914-130.271,36.914-204.405C900.654,426.806,878.658,335.655,834.665,257.602z M479.806,517.009
			l166.083-211.888c47.25,54.928,70.879,128.709,70.879,221.367c0,66.293-12.045,122.122-36.096,167.484
			c-10.43,19.672-22.161,36.877-35.187,51.624L479.806,517.009z M382.103,213c40.036,0,75.968,3.182,108.315,9.404L334,420.537V213
			H382.103z M341.322,820l-6.833-198.981L482.96,816.543c-23.28,2.232-49.24,3.457-77.891,3.457H341.322z"/>
	</g>
	<g>
		<path fill="none" d="M295,384.003l156.433-197.866c-32.347-6.223-68.263-9.138-108.3-9.138H295V384.003z"/>
		<path fill="none" d="M677.798,489.953c0-92.657-23.629-166.438-70.879-221.366L440.836,480.476l165.68,228.587
			c13.026-14.748,24.757-31.953,35.187-51.625C665.754,612.075,677.798,556.247,677.798,489.953z"/>
		<path fill="none" d="M295.519,584.252L302.353,783H366.1c28.651,0,54.611-1.107,77.891-3.341L295.519,584.252z"/>
		<path fill="#EA5F00" d="M795.696,221.068c-43.993-78.053-99.954-134.395-167.885-169.064C559.881,17.334,456.007,0,316.228,0H99
			v962h220.481c124.558,0,212.087-7.811,262.607-23.508c50.519-15.699,97.442-44.036,140.788-85.022
			c43.326-40.986,77.292-92.526,101.895-154.652c24.604-62.127,36.915-130.244,36.915-204.377
			C861.686,390.243,839.688,299.121,795.696,221.068z M440.836,480.476l166.083-211.889c47.25,54.928,70.879,128.709,70.879,221.366
			c0,66.294-12.044,122.122-36.096,167.484c-10.43,19.672-22.16,36.877-35.187,51.625L440.836,480.476z M343.133,177
			c40.037,0,75.953,2.915,108.3,9.138L295,384.003V177H343.133z M302.353,783l-6.833-198.748l148.472,195.407
			c-23.28,2.233-49.24,3.341-77.891,3.341H302.353z"/>
	</g>
</g>
</svg>
